<svg id="Layer_1" data-name="Layer 1" xmlns="http://www.w3.org/2000/svg" viewBox="0 0 400 400"><defs><style>.cls-1,.cls-18,.cls-33,.cls-6{fill:#fff;}.cls-1,.cls-23{stroke:#46717c;}.cls-1,.cls-10,.cls-12,.cls-13,.cls-16,.cls-2,.cls-20,.cls-21,.cls-22,.cls-23,.cls-24,.cls-25,.cls-26,.cls-27,.cls-28,.cls-29,.cls-3,.cls-30,.cls-33,.cls-4,.cls-5,.cls-6,.cls-7,.cls-8,.cls-9{stroke-miterlimit:10;}.cls-1{stroke-width:3px;}.cls-2{fill:#ccc;stroke:#ccc;}.cls-3{fill:#007c85;stroke:#007c85;}.cls-4{fill:#ebbd9f;stroke:#ebbd9f;}.cls-5{fill:#001b2e;stroke:#001b2e;}.cls-27,.cls-31,.cls-6,.cls-9{stroke:#231f20;}.cls-7{fill:#00b2b1;stroke:#00b2b1;}.cls-12,.cls-8{fill:#123344;}.cls-8{stroke:#123344;}.cls-24,.cls-25,.cls-26,.cls-27,.cls-31,.cls-9{fill:none;}.cls-10{fill:#3c5552;stroke:#3c5552;}.cls-11{fill:#f09f8b;}.cls-12,.cls-13{stroke:#113445;}.cls-13{fill:#113445;}.cls-14{fill:#f19d8b;}.cls-15{fill:#ed7375;}.cls-16{fill:#f8c8a7;stroke:#f8c8a7;}.cls-17,.cls-20{fill:#002741;}.cls-19{fill:#ef9f8a;}.cls-20{stroke:#002741;}.cls-21{fill:#afbac3;stroke:#afbac3;}.cls-22{stroke:#000;}.cls-23{fill:#46717c;}.cls-24,.cls-29{stroke:#35a6ff;}.cls-25,.cls-28{stroke:#ff651f;}.cls-26,.cls-30{stroke:#aa0004;}.cls-27,.cls-31{stroke-linecap:round;}.cls-27{stroke-width:2px;}.cls-28{fill:#ff651f;}.cls-29{fill:#35a6ff;}.cls-30{fill:#aa0004;}.cls-31{stroke-linejoin:round;}.cls-32{fill:#231f20;}.cls-33{stroke:#fff;}</style></defs><rect class="cls-1" x="41.53" y="105.67" width="147.72" height="184.62" rx="16.32"/><rect class="cls-2" x="54.99" y="235.51" width="36.94" height="21.72" rx="4.94"/><rect class="cls-2" x="93.56" y="215.12" width="36.94" height="14.32" rx="4.94"/><rect class="cls-2" x="141.88" y="215.12" width="36.94" height="14.32" rx="4.94"/><rect class="cls-2" x="93.56" y="264.86" width="36.94" height="14.32" rx="4.94"/><rect class="cls-2" x="143.35" y="240.85" width="36.94" height="14.32" rx="4.94"/><rect class="cls-2" x="143.35" y="264.86" width="36.94" height="14.32" rx="4.94"/><path class="cls-3" d="M273.56,212.62l-39.67,32.9,0,0a4.92,4.92,0,0,1-3.9,1.92,4.19,4.19,0,0,1-.5,0h0v0l-50.78-8.78,1.65-9.59,48.17,8.33,38.85-32.23Z"/><circle class="cls-4" cx="177.96" cy="233.57" r="11.29"/><path class="cls-3" d="M320.31,198h6.92A27.77,27.77,0,0,1,355,225.75v0a0,0,0,0,1,0,0H320.31a0,0,0,0,1,0,0V198A0,0,0,0,1,320.31,198Z"/><path class="cls-3" d="M355,225.75V278a11.31,11.31,0,0,0-9.73,0V225.75Z"/><path class="cls-4" d="M361.42,288.21a11.3,11.3,0,1,1-11.29-11.28A11.14,11.14,0,0,1,355,278,11.27,11.27,0,0,1,361.42,288.21Z"/><path class="cls-5" d="M302.1,308.91v54H276.58V300.29A42.69,42.69,0,0,0,302.1,308.91Z"/><path class="cls-6" d="M302.1,292v16.89a42.69,42.69,0,0,1-25.52-8.62V292Z"/><rect class="cls-3" x="276.58" y="368.33" width="25.52" height="4"/><rect class="cls-7" x="302.1" y="368.33" width="26.08" height="4"/><rect class="cls-5" x="276.58" y="362.88" width="25.52" height="5.45"/><rect class="cls-8" x="302.1" y="362.88" width="26.08" height="5.45"/><line class="cls-9" x1="302.1" y1="292.02" x2="302.1" y2="276.92"/><line class="cls-9" x1="302.1" y1="362.88" x2="302.1" y2="360.73"/><line class="cls-9" x1="302.1" y1="374.67" x2="302.1" y2="372.33"/><path class="cls-10" d="M344.11,53.59H379a0,0,0,0,1,0,0V94.68a34.86,34.86,0,0,1-34.86,34.86h0a0,0,0,0,1,0,0v-76A0,0,0,0,1,344.11,53.59Z"/><circle class="cls-11" cx="361.54" cy="116.57" r="9.96"/><circle class="cls-11" cx="243.21" cy="116.57" r="9.96"/><path class="cls-7" d="M345.28,226.7v34.38h-85.8V226.7a42.9,42.9,0,0,1,85.8,0Z"/><path class="cls-12" d="M345.27,266.88a42.84,42.84,0,0,1-17.09,33.41v62.59H302.1V292H276.58v8.27a42.84,42.84,0,0,1-17.09-33.41Z"/><path class="cls-13" d="M302.1,292v16.89a42.69,42.69,0,0,1-25.52-8.62V292Z"/><path class="cls-5" d="M345.28,261.08V266c0,.29,0,.58,0,.87H259.49c0-.29,0-.58,0-.87v-4.93Z"/><rect class="cls-14" x="294.74" y="169.84" width="14.9" height="31.05" rx="7.45"/><rect class="cls-15" x="294.74" y="162" width="14.9" height="23.46" rx="7.45"/><ellipse class="cls-16" cx="302.19" cy="117.7" rx="58.98" ry="58.58"/><path class="cls-10" d="M229.17,20.64H331.47a32.95,32.95,0,0,1,32.95,32.95v0a32.95,32.95,0,0,1-32.95,32.95H262.12a32.95,32.95,0,0,1-32.95-32.95V20.64a0,0,0,0,1,0,0Z"/><rect class="cls-17" x="279.84" y="108.76" width="7.28" height="12.64" rx="3.64"/><path class="cls-18" d="M336,138.25a33.7,33.7,0,0,1-67.27,0Z"/><rect class="cls-19" x="274.1" y="97.58" width="18.77" height="6.51" rx="3.26"/><rect class="cls-20" x="274.1" y="94.96" width="18.77" height="6.51" rx="3.26"/><rect class="cls-17" x="316.67" y="109.33" width="7.28" height="12.64" rx="3.64"/><rect class="cls-19" x="310.92" y="98.15" width="18.77" height="6.51" rx="3.26"/><rect class="cls-20" x="310.92" y="95.54" width="18.77" height="6.51" rx="3.26"/><rect class="cls-21" x="21.03" y="374.67" width="350.02" height="4.69" rx="2.34"/><rect class="cls-22" x="252.72" y="372.33" width="98.77" height="4.69" rx="2.34"/><path class="cls-23" d="M173.42,377.2a5.6,5.6,0,0,1-6.36-4.7l-12.33-82.21H166l12.08,80.55A5.59,5.59,0,0,1,173.42,377.2Z"/><path class="cls-23" d="M73.16,290.29l-12.31,82a5.59,5.59,0,0,1-11.06-1.66l12.05-80.37Z"/><path class="cls-24" d="M57.35,171.89l15.24,3.94,13.21-6.75,20.25,5.06,14.35-11,18,3.38L155,151.64l16.31-7"/><path class="cls-25" d="M57.35,132,72.3,138.7l10.41,10.13L101,157.55l16.59,21.93,21.66-8.15,15.75,7,16.59-3.66"/><path class="cls-26" d="M57.35,151.08l16.08,10.4q6.46,11.11,12.94,22.22l11.25-2.81,18.84-29,27-9.28,27-18.28"/><line class="cls-27" x1="57.35" y1="121.97" x2="57.35" y2="189.51"/><line class="cls-27" x1="57.35" y1="189.51" x2="173.01" y2="189.51"/><circle class="cls-28" cx="59.34" cy="198.02" r="2.88"/><rect class="cls-2" x="65.22" y="195.11" width="22.37" height="5.76" rx="2.88"/><circle class="cls-29" cx="102.05" cy="198.27" r="2.88"/><rect class="cls-2" x="107.93" y="195.36" width="22.37" height="5.76" rx="2.88"/><circle class="cls-30" cx="144.76" cy="198.25" r="2.88"/><rect class="cls-2" x="150.64" y="195.34" width="22.37" height="5.76" rx="2.88"/><path class="cls-31" d="M67.84,231a10.45,10.45,0,0,1,4-6.92A17.3,17.3,0,0,1,82,220.73"/><path class="cls-32" d="M85,220.82a15.14,15.14,0,0,0-4.32,2.29l.91-2.36-.81-2.4A14.78,14.78,0,0,0,85,220.82Z"/><path class="cls-31" d="M67.84,261.7a10.45,10.45,0,0,0,4,6.92A17.36,17.36,0,0,0,82,272"/><path class="cls-32" d="M85,271.92a14.78,14.78,0,0,0-4.22,2.47l.81-2.4-.91-2.36A15.14,15.14,0,0,0,85,271.92Z"/><path class="cls-31" d="M115.39,237.69a10.54,10.54,0,0,0,4,6.92,17.35,17.35,0,0,0,10.1,3.39"/><path class="cls-32" d="M132.53,247.91a15,15,0,0,0-4.22,2.47l.81-2.4-.91-2.36A15.14,15.14,0,0,0,132.53,247.91Z"/><path class="cls-10" d="M343.1,53.59h23a0,0,0,0,1,0,0V117.7a0,0,0,0,1,0,0h0a23,23,0,0,1-23-23V53.59a0,0,0,0,1,0,0Z"/><polygon class="cls-32" points="297.19 214.6 307.19 214.6 307.19 266.78 302.19 275.44 297.19 266.78 297.19 214.6"/><polygon class="cls-32" points="307.19 214.6 297.19 214.6 302.19 205.94 307.19 214.6"/><rect class="cls-33" x="287.78" y="181.4" width="11.65" height="25.67" transform="matrix(0.87, -0.5, 0.5, 0.87, -57.78, 172.83)"/><rect class="cls-33" x="304.56" y="182.82" width="11.65" height="24.14" transform="translate(481.74 518.87) rotate(-150)"/><rect class="cls-32" x="297.81" y="198.9" width="8.76" height="8.76" transform="translate(-55.23 273.22) rotate(-45)"/></svg>