<svg id="Layer_1" data-name="Layer 1" xmlns="http://www.w3.org/2000/svg" viewBox="0 0 400 400"><defs><style>.cls-1{fill:#afbac3;stroke:#afbac3;}.cls-1,.cls-10,.cls-11,.cls-14,.cls-16,.cls-2,.cls-20,.cls-21,.cls-22,.cls-23,.cls-3,.cls-4,.cls-5,.cls-6,.cls-7,.cls-8,.cls-9{stroke-miterlimit:10;}.cls-2{fill:#ebbd9f;stroke:#ebbd9f;}.cls-3{fill:#d58c7b;stroke:#d58c7b;}.cls-4{fill:#ddb195;stroke:#ddb195;}.cls-5{fill:#ef9c8a;stroke:#ef9c8a;}.cls-6{fill:#362b40;stroke:#362b40;}.cls-7{fill:#443651;stroke:#443651;}.cls-8{fill:#6c1543;stroke:#6c1543;}.cls-9{fill:#9f1f63;stroke:#9f1f63;}.cls-10{fill:#d56769;stroke:#d56769;}.cls-11{fill:#d88f7c;stroke:#d88f7c;}.cls-12{fill:#f19d8b;}.cls-13{fill:#ed7375;}.cls-14,.cls-19{fill:#002741;}.cls-14{stroke:#002740;}.cls-15{fill:#f09f8b;}.cls-16{fill:#f8c8a7;stroke:#f8c8a7;}.cls-17{fill:#ef9f8a;}.cls-18,.cls-20{fill:#fff;}.cls-20{stroke:#fff;}.cls-21,.cls-25{fill:none;}.cls-21{stroke:#231f20;}.cls-22{stroke:#000;}.cls-23{fill:#d6d1b8;stroke:#eaede5;}.cls-24{fill:#92d89e;}.cls-25,.cls-26{stroke:#588857;stroke-linecap:round;stroke-linejoin:round;}.cls-26{fill:#588857;}</style></defs><rect class="cls-1" x="124.25" y="386.12" width="153.56" height="6.27" rx="2.23"/><path class="cls-2" d="M167.38,290.45a9.06,9.06,0,1,1-15.56-6.31v1h13v-1A9,9,0,0,1,167.38,290.45Z"/><path class="cls-2" d="M250.26,284.16a9.05,9.05,0,1,1-13,0"/><rect class="cls-2" x="151.82" y="247.21" width="12.98" height="37.93"/><rect class="cls-2" x="237.26" y="247.21" width="13" height="37.93"/><rect class="cls-3" x="175.37" y="341.89" width="25.66" height="28.56"/><rect class="cls-4" x="201.03" y="341.89" width="25.66" height="28.56"/><rect class="cls-5" x="237.26" y="241.63" width="13" height="5.58"/><rect class="cls-5" x="151.82" y="241.63" width="12.98" height="5.58"/><rect class="cls-6" x="175.37" y="370.44" width="25.66" height="6.27"/><rect class="cls-7" x="201.03" y="370.44" width="25.66" height="6.27"/><rect class="cls-8" x="175.37" y="376.71" width="25.66" height="6.28"/><rect class="cls-9" x="201.03" y="376.71" width="25.66" height="6.28"/><rect class="cls-10" x="175.37" y="335.6" width="25.66" height="6.28"/><rect class="cls-11" x="201.03" y="335.6" width="25.66" height="6.28"/><path class="cls-8" d="M201,319.37V335.6H175.37V308.72A36.13,36.13,0,0,0,201,319.37Z"/><path class="cls-6" d="M237.26,241.63v-7.08a36,36,0,0,0-8.61-23.45,30.6,30.6,0,0,1,28.57,30.53Z"/><path class="cls-6" d="M173.41,211.11a36.08,36.08,0,0,0-8.6,23.44v7.08H145A30.6,30.6,0,0,1,173.41,211.11Z"/><path class="cls-7" d="M237.26,234.55v32.11H164.81V234.55a36.23,36.23,0,0,1,61.84-25.62c.69.69,1.36,1.42,2,2.17A36,36,0,0,1,237.26,234.55Z"/><path class="cls-9" d="M164.81,274.1v9.06A36.21,36.21,0,0,0,201,319.37V335.6h25.66V308.72a36,36,0,0,0,10.57-25.56V274.1Zm33.65,6.21a2.58,2.58,0,1,1,2.57,2.57A2.57,2.57,0,0,1,198.46,280.31Z"/><rect class="cls-12" x="191.4" y="178.26" width="19.27" height="32.77" rx="6.86"/><rect class="cls-13" x="191.4" y="169.86" width="19.27" height="32.77" rx="6.86"/><path class="cls-14" d="M190.45,49.28a54.92,54.92,0,0,0,0,109.84h21.17a54.91,54.91,0,0,0,54.91-54.92V49.28Zm-9.57,74.4c-2,0-3.55-2-3.55-4.42s1.58-4.41,3.55-4.41,3.56,2,3.56,4.41S182.85,123.68,180.88,123.68ZM191,104.87a3.24,3.24,0,0,1-2.29,1H173.12a3.26,3.26,0,0,1,0-6.51H188.7a3.26,3.26,0,0,1,3.24,3.26A3.21,3.21,0,0,1,191,104.87Zm30,18.81c-2,0-3.55-2-3.55-4.42s1.59-4.41,3.55-4.41,3.56,2,3.56,4.41S223,123.68,221,123.68Zm10.11-18.81a3.22,3.22,0,0,1-2.29,1H213.29a3.25,3.25,0,0,1-2.29-5.55,3.22,3.22,0,0,1,2.29-1h15.57a3.26,3.26,0,0,1,3.24,3.26A3.21,3.21,0,0,1,231.15,104.87Z"/><ellipse class="cls-15" cx="142.18" cy="134.97" rx="9.06" ry="6.97"/><ellipse class="cls-15" cx="259.88" cy="134.97" rx="9.06" ry="6.97"/><circle class="cls-16" cx="201.03" cy="135.79" r="58.85"/><rect class="cls-17" x="169.82" y="102.58" width="22.06" height="6.5" rx="2.31"/><path class="cls-14" d="M191.94,102.58a3.26,3.26,0,0,1-3.24,3.25H173.12a3.26,3.26,0,0,1,0-6.51H188.7A3.26,3.26,0,0,1,191.94,102.58Z"/><path class="cls-18" d="M243.19,146.61a42.24,42.24,0,0,1-84.32,0Z"/><path class="cls-19" d="M185.11,120.42c0,3.09-1.9,5.57-4.26,5.57s-4.26-2.48-4.26-5.57,1.9-5.57,4.26-5.57S185.11,117.35,185.11,120.42Z"/><rect class="cls-17" x="209.99" y="102.58" width="22.06" height="6.5" rx="2.31"/><path class="cls-14" d="M232.1,102.58a3.26,3.26,0,0,1-3.24,3.25H213.29a3.25,3.25,0,0,1-2.29-5.55,3.22,3.22,0,0,1,2.29-1h15.57A3.26,3.26,0,0,1,232.1,102.58Z"/><rect class="cls-8" x="164.81" y="266.66" width="72.46" height="7.43"/><path class="cls-20" d="M203.61,281.66a2.58,2.58,0,1,1-2.58-2.57A2.58,2.58,0,0,1,203.61,281.66Z"/><line class="cls-21" x1="175.37" y1="382.99" x2="226.69" y2="382.99"/><path class="cls-22" d="M246.89,386.12a3.14,3.14,0,0,1-.92,2.22,3.1,3.1,0,0,1-2.22.92H158.31a3.14,3.14,0,0,1-3.13-3.14,3.21,3.21,0,0,1,.91-2.22,3.17,3.17,0,0,1,2.22-.91h85.44A3.14,3.14,0,0,1,246.89,386.12Z"/><path class="cls-19" d="M225.11,120.42c0,3.09-1.91,5.57-4.27,5.57s-4.26-2.48-4.26-5.57,1.9-5.57,4.26-5.57S225.11,117.35,225.11,120.42Z"/><path class="cls-23" d="M86,179q1,7.35,2,14.71A71.53,71.53,0,0,0,130,179.85l-3.27-14.71A99.43,99.43,0,0,1,86,179Z"/><ellipse class="cls-24" cx="108.87" cy="182.15" rx="6.69" ry="6.97"/><path class="cls-25" d="M112,178.74a4.61,4.61,0,0,0-4.9-1.12,4.75,4.75,0,0,0,3.06,8.89,4.87,4.87,0,0,0,3.13-3"/><line class="cls-25" x1="110.11" y1="186.51" x2="110.51" y2="187.6"/><line class="cls-25" x1="107.43" y1="177.49" x2="107.15" y2="176.45"/><ellipse class="cls-26" cx="89.63" cy="191.85" rx="1.18" ry="1"/><ellipse class="cls-26" cx="125.72" cy="167.55" rx="1.1" ry="0.9" transform="translate(-63.71 78.14) rotate(-27.85)"/><path class="cls-23" d="M83.73,127.69c.47,3.48.93,7,1.4,10.45A50.86,50.86,0,0,0,115,128.33q-1.15-5.24-2.32-10.46a70.46,70.46,0,0,1-29,9.82Z"/><ellipse class="cls-24" cx="100.02" cy="129.96" rx="4.76" ry="4.96"/><path class="cls-25" d="M102.2,127.54a3.27,3.27,0,0,0-3.47-.8,3.38,3.38,0,0,0,2.17,6.32,3.52,3.52,0,0,0,2.23-2.12"/><line class="cls-25" x1="100.9" y1="133.06" x2="101.18" y2="133.83"/><line class="cls-25" x1="98.99" y1="126.65" x2="98.79" y2="125.91"/><ellipse class="cls-26" cx="86.35" cy="136.85" rx="0.84" ry="0.71"/><ellipse class="cls-26" cx="111.99" cy="119.59" rx="0.78" ry="0.64" transform="translate(-42.89 66.17) rotate(-27.85)"/><path class="cls-23" d="M269.89,239.68l-8,10.07a61.26,61.26,0,0,0,13.59,11.16,60.06,60.06,0,0,0,19.43,7.48l7.23-10.9a83.1,83.1,0,0,1-17.54-7.34A84.77,84.77,0,0,1,269.89,239.68Z"/><ellipse class="cls-24" cx="281.22" cy="256.26" rx="6.05" ry="5.75" transform="translate(-77.05 384.29) rotate(-62.01)"/><path class="cls-25" d="M285.12,256.18a4.06,4.06,0,0,0-2.15-3.8,3.93,3.93,0,0,0-5,2.11,4.19,4.19,0,0,0,1.25,5.17,4.05,4.05,0,0,0,3.67.22"/><line class="cls-25" x1="279.24" y1="259.66" x2="278.79" y2="260.57"/><line class="cls-25" x1="283.27" y1="252.55" x2="283.75" y2="251.74"/><ellipse class="cls-26" cx="264.02" cy="249.76" rx="0.86" ry="1.02" transform="translate(-97.84 215.95) rotate(-38.07)"/><ellipse class="cls-26" cx="300.07" cy="258.29" rx="0.79" ry="0.94" transform="translate(-52.34 438.76) rotate(-67.84)"/><path class="cls-23" d="M97.06,41.47,95.5,54.58a63.69,63.69,0,0,0,18.08,1.92A63.77,63.77,0,0,0,134.82,52q.23-6.69.44-13.4a88.71,88.71,0,0,1-19.49,3.58A89.19,89.19,0,0,1,97.06,41.47Z"/><ellipse class="cls-24" cx="116.11" cy="49.29" rx="6.21" ry="5.96" transform="translate(39.49 149.49) rotate(-75.6)"/><path class="cls-25" d="M119.51,47a4.1,4.1,0,0,0-4-2,4.23,4.23,0,0,0,.67,8.34,4.35,4.35,0,0,0,3.36-1.88"/><line class="cls-25" x1="116.21" y1="53.33" x2="116.32" y2="54.36"/><line class="cls-25" x1="115.9" y1="44.96" x2="115.88" y2="44"/><ellipse class="cls-26" cx="97.38" cy="53.4" rx="0.89" ry="1.05" transform="translate(21.44 134.44) rotate(-75.6)"/><ellipse class="cls-26" cx="133.87" cy="40.44" rx="0.98" ry="0.8" transform="translate(-5.73 32.25) rotate(-13.45)"/><path class="cls-23" d="M287.36,138.07l-7.73,12.67A71.35,71.35,0,0,0,321,166.48L327.73,153a99.56,99.56,0,0,1-21.58-5.47A98.68,98.68,0,0,1,287.36,138.07Z"/><ellipse class="cls-24" cx="303.15" cy="154.98" rx="6.97" ry="6.69" transform="translate(-8.08 293.01) rotate(-51)"/><path class="cls-25" d="M307.69,154.26a4.6,4.6,0,0,0-3.1-3.94,4.75,4.75,0,0,0-3.22,8.83,4.87,4.87,0,0,0,4.31-.35"/><line class="cls-25" x1="301.37" y1="159.15" x2="301" y2="160.25"/><line class="cls-25" x1="304.96" y1="150.45" x2="305.4" y2="149.47"/><ellipse class="cls-26" cx="282.1" cy="150.41" rx="1" ry="1.18" transform="translate(-12.33 274.96) rotate(-51)"/><ellipse class="cls-26" cx="325.44" cy="154.24" rx="0.9" ry="1.1" transform="translate(111.14 443.69) rotate(-78.84)"/><path class="cls-23" d="M279,95.46q3.45,6.56,6.89,13.13a71.37,71.37,0,0,0,34.77-27.41l-8.12-12.69a99.13,99.13,0,0,1-15.77,15.7A99.34,99.34,0,0,1,279,95.46Z"/><ellipse class="cls-24" cx="301.61" cy="90.59" rx="6.69" ry="6.97" transform="translate(-12.77 109.04) rotate(-20.08)"/><path class="cls-25" d="M303.33,86.33a4.61,4.61,0,0,0-5,.63,4.75,4.75,0,0,0,5.93,7.3,4.9,4.9,0,0,0,1.92-3.88"/><line class="cls-25" x1="304.28" y1="94.26" x2="305.03" y2="95.15"/><line class="cls-25" x1="298.66" y1="86.71" x2="298.04" y2="85.83"/><ellipse class="cls-26" cx="286.88" cy="106.3" rx="1.18" ry="1" transform="translate(-19.06 104.94) rotate(-20.08)"/><ellipse class="cls-26" cx="312.43" cy="71.1" rx="1.1" ry="0.9" transform="translate(50.3 255.37) rotate(-47.93)"/><path class="cls-23" d="M104.62,230.19q-3.12,5.1-6.23,10.2a57.5,57.5,0,0,0,33.35,12.69q2.72-5.43,5.42-10.87a80,80,0,0,1-32.54-12Z"/><ellipse class="cls-24" cx="117.35" cy="243.81" rx="5.62" ry="5.4" transform="translate(-145.97 181.55) rotate(-51)"/><path class="cls-25" d="M121,243.23a3.72,3.72,0,0,0-2.5-3.18,3.83,3.83,0,0,0-2.59,7.12,3.92,3.92,0,0,0,3.48-.28"/><line class="cls-25" x1="115.91" y1="247.17" x2="115.61" y2="248.06"/><line class="cls-25" x1="118.81" y1="240.16" x2="119.16" y2="239.37"/><ellipse class="cls-26" cx="100.38" cy="240.13" rx="0.8" ry="0.95" transform="translate(-149.4 167) rotate(-51)"/><ellipse class="cls-26" cx="135.31" cy="243.22" rx="0.73" ry="0.89" transform="translate(-129.49 328.91) rotate(-78.84)"/><path class="cls-23" d="M110.57,348.25q-3.87,6.33-7.73,12.66a71.15,71.15,0,0,0,17.57,10.42,71.89,71.89,0,0,0,23.8,5.33l6.72-13.49a99.26,99.26,0,0,1-40.36-14.92Z"/><ellipse class="cls-24" cx="126.36" cy="365.15" rx="6.97" ry="6.69" transform="translate(-236.93 233.52) rotate(-51)"/><path class="cls-25" d="M130.9,364.44a4.61,4.61,0,0,0-3.11-3.95,4.75,4.75,0,0,0-3.21,8.83,4.93,4.93,0,0,0,4.31-.34"/><line class="cls-25" x1="124.58" y1="369.32" x2="124.2" y2="370.42"/><line class="cls-25" x1="128.17" y1="360.63" x2="128.6" y2="359.64"/><ellipse class="cls-26" cx="105.31" cy="360.58" rx="1" ry="1.18" transform="translate(-241.18 215.47) rotate(-51)"/><ellipse class="cls-26" cx="148.64" cy="364.42" rx="0.9" ry="1.1" transform="translate(-237.65 439.74) rotate(-78.84)"/><path class="cls-23" d="M251.54,200.91q.75,5.59,1.49,11.18A54.11,54.11,0,0,0,285,201.59q-1.23-5.58-2.48-11.18a75.21,75.21,0,0,1-31,10.5Z"/><ellipse class="cls-24" cx="268.94" cy="203.34" rx="5.08" ry="5.3"/><path class="cls-25" d="M271.27,200.75a3.51,3.51,0,0,0-3.71-.85,3.61,3.61,0,0,0,2.32,6.76,3.75,3.75,0,0,0,2.38-2.27"/><line class="cls-25" x1="269.88" y1="206.66" x2="270.19" y2="207.49"/><line class="cls-25" x1="267.85" y1="199.8" x2="267.63" y2="199.01"/><ellipse class="cls-26" cx="254.33" cy="210.71" rx="0.9" ry="0.76"/><ellipse class="cls-26" cx="281.74" cy="192.25" rx="0.84" ry="0.69" transform="translate(-57.26 154.64) rotate(-27.98)"/><path class="cls-23" d="M76.1,308.07l9.24,11.6a71.4,71.4,0,0,0,29-33.46L104,275.27a99.76,99.76,0,0,1-12.54,18.39A99.29,99.29,0,0,1,76.1,308.07Z"/><ellipse class="cls-24" cx="97.4" cy="299.04" rx="6.69" ry="6.97" transform="translate(-139.81 92.54) rotate(-30.92)"/><path class="cls-25" d="M98.29,294.53a4.6,4.6,0,0,0-4.77,1.56,4.75,4.75,0,0,0,7.19,6.05,4.93,4.93,0,0,0,1.15-4.17"/><line class="cls-25" x1="100.71" y1="302.14" x2="101.61" y2="302.87"/><line class="cls-25" x1="93.77" y1="295.78" x2="93" y2="295.03"/><ellipse class="cls-26" cx="85.88" cy="317.24" rx="1.18" ry="1" transform="translate(-150.8 89.21) rotate(-30.92)"/><ellipse class="cls-26" cx="104.36" cy="277.85" rx="1.1" ry="0.9" transform="translate(-187.34 223.02) rotate(-58.77)"/><path class="cls-23" d="M225.26,8.41l-6.93,13.12a71.74,71.74,0,0,0,18.18,9.31,71.35,71.35,0,0,0,24.09,3.84q2.94-6.93,5.87-13.87a99.61,99.61,0,0,1-21.87-4.12A99.33,99.33,0,0,1,225.26,8.41Z"/><ellipse class="cls-24" cx="242.07" cy="24.31" rx="6.97" ry="6.69" transform="translate(81.83 207.36) rotate(-54.54)"/><path class="cls-25" d="M246.55,23.31a4.58,4.58,0,0,0-3.34-3.74,4.75,4.75,0,0,0-2.66,9,4.89,4.89,0,0,0,4.28-.62"/><line class="cls-25" x1="240.55" y1="28.58" x2="240.24" y2="29.7"/><line class="cls-25" x1="243.6" y1="19.68" x2="243.97" y2="18.67"/><ellipse class="cls-26" cx="220.77" cy="21.04" rx="1" ry="1.18" transform="translate(75.54 188.65) rotate(-54.54)"/><ellipse class="cls-26" cx="264.26" cy="22.19" rx="0.9" ry="1.1" transform="translate(207.25 281.19) rotate(-82.39)"/><path class="cls-23" d="M246.93,321.72q1,7.35,2,14.7A71.34,71.34,0,0,0,291,322.61q-1.62-7.35-3.26-14.7a99.56,99.56,0,0,1-40.76,13.81Z"/><ellipse class="cls-24" cx="269.84" cy="324.91" rx="6.69" ry="6.97"/><path class="cls-25" d="M272.91,321.5a4.59,4.59,0,0,0-4.89-1.11,4.75,4.75,0,0,0,3.06,8.88,4.87,4.87,0,0,0,3.13-3"/><line class="cls-25" x1="271.08" y1="329.27" x2="271.48" y2="330.36"/><line class="cls-25" x1="268.4" y1="320.26" x2="268.11" y2="319.22"/><ellipse class="cls-26" cx="250.6" cy="334.61" rx="1.18" ry="1"/><ellipse class="cls-26" cx="286.69" cy="310.32" rx="1.1" ry="0.9" transform="translate(-111.76 169.87) rotate(-27.85)"/><path class="cls-23" d="M271.35,349.36l-10.84,10.12a71.45,71.45,0,0,0,35.63,26.27l10.09-11.19a99.28,99.28,0,0,1-34.88-25.2Z"/><ellipse class="cls-24" cx="282.03" cy="369.88" rx="6.97" ry="6.69" transform="translate(-162.21 232.02) rotate(-35.43)"/><path class="cls-25" d="M286.59,370.4a4.6,4.6,0,0,0-1.93-4.63,4.75,4.75,0,0,0-5.46,7.65,4.9,4.9,0,0,0,4.24.82"/><line class="cls-25" x1="279.2" y1="373.42" x2="278.54" y2="374.38"/><line class="cls-25" x1="284.99" y1="366" x2="285.67" y2="365.17"/><ellipse class="cls-26" cx="262.97" cy="359.83" rx="1" ry="1.18" transform="translate(-159.91 219.11) rotate(-35.43)"/><ellipse class="cls-26" cx="303.69" cy="375.15" rx="0.9" ry="1.1" transform="translate(-167.94 477.75) rotate(-63.28)"/></svg>