<svg width="1013" height="482" viewBox="0 0 1013 482" fill="none" xmlns="http://www.w3.org/2000/svg">
    <path d="M1012.39 3.2395C1012.8 1.92058 1012.06 0.520293 1010.74 0.111876C1009.42 -0.29654 1008.02 0.441572 1007.61 1.7605L1012.39 3.2395ZM1.5 482L25.8194 466.447L0.190202 453.162L1.5 482ZM12.8959 465.447C13.5454 464.228 13.0841 462.714 11.8657 462.065C10.6472 461.415 9.13301 461.876 8.48358 463.095L12.8959 465.447ZM27.8609 428.841C27.1489 430.024 27.5307 431.56 28.7137 432.272C29.8967 432.984 31.4329 432.602 32.1449 431.419L27.8609 428.841ZM53.2499 398.709C54.0372 397.575 53.7559 396.017 52.6216 395.23C51.4873 394.443 49.9296 394.724 49.1424 395.858L53.2499 398.709ZM73.0786 364.158C72.1996 365.223 72.3502 366.798 73.4149 367.677C74.4797 368.556 76.0554 368.406 76.9344 367.341L73.0786 364.158ZM103.126 338.699C104.112 337.733 104.128 336.15 103.162 335.164C102.196 334.177 100.613 334.161 99.6268 335.127L103.126 338.699ZM129.749 309.217C128.642 310.042 128.414 311.609 129.239 312.716C130.065 313.822 131.631 314.051 132.738 313.225L129.749 309.217ZM165.614 292.531C166.839 291.895 167.317 290.386 166.681 289.16C166.044 287.935 164.535 287.457 163.31 288.093L165.614 292.531ZM199.989 272.995C198.671 273.405 197.934 274.806 198.344 276.124C198.753 277.443 200.154 278.18 201.473 277.77L199.989 272.995ZM239.399 269.515C240.767 269.335 241.731 268.079 241.551 266.71C241.371 265.341 240.116 264.378 238.747 264.558L239.399 269.515ZM278.319 262.311C276.939 262.295 275.807 263.401 275.791 264.782C275.775 266.163 276.881 267.295 278.262 267.311L278.319 262.311ZM317.194 269.938C318.565 270.099 319.808 269.119 319.969 267.747C320.13 266.376 319.149 265.134 317.778 264.972L317.194 269.938ZM356.781 271.073C355.424 270.815 354.115 271.706 353.857 273.062C353.6 274.418 354.49 275.727 355.846 275.985L356.781 271.073ZM394.187 284.196C395.532 284.51 396.876 283.675 397.191 282.33C397.505 280.986 396.67 279.641 395.325 279.327L394.187 284.196ZM433.549 288.692C432.21 288.354 430.851 289.165 430.513 290.504C430.175 291.843 430.986 293.202 432.325 293.54L433.549 288.692ZM470.427 303.175C471.767 303.51 473.124 302.695 473.459 301.356C473.794 300.016 472.979 298.659 471.64 298.324L470.427 303.175ZM509.802 307.516C508.456 307.208 507.116 308.049 506.808 309.395C506.499 310.741 507.341 312.082 508.687 312.39L509.802 307.516ZM547.233 320.543C548.589 320.802 549.899 319.914 550.159 318.558C550.419 317.202 549.53 315.892 548.174 315.632L547.233 320.543ZM586.832 322.084C585.464 321.893 584.201 322.846 584.009 324.213C583.817 325.581 584.771 326.845 586.138 327.036L586.832 322.084ZM626.182 331.273C627.56 331.362 628.749 330.317 628.839 328.94C628.928 327.562 627.883 326.373 626.505 326.283L626.182 331.273ZM667.027 326.943C665.648 326.991 664.568 328.148 664.615 329.528C664.663 330.908 665.821 331.988 667.2 331.94L667.027 326.943ZM708.051 328.24C709.417 328.036 710.358 326.763 710.154 325.398C709.95 324.032 708.678 323.091 707.312 323.295L708.051 328.24ZM746.832 314.834C745.503 315.209 744.73 316.59 745.106 317.919C745.481 319.248 746.862 320.021 748.191 319.645L746.832 314.834ZM786.903 305.831C788.169 305.279 788.747 303.805 788.196 302.54C787.644 301.274 786.17 300.695 784.905 301.247L786.903 305.831ZM820.724 282.593C819.546 283.314 819.175 284.852 819.895 286.03C820.616 287.208 822.154 287.579 823.332 286.859L820.724 282.593ZM856.86 263.147C857.933 262.278 858.098 260.703 857.229 259.631C856.36 258.558 854.785 258.393 853.713 259.262L856.86 263.147ZM883.514 231.919C882.553 232.912 882.579 234.494 883.571 235.455C884.563 236.415 886.146 236.389 887.106 235.397L883.514 231.919ZM913.992 204.409C914.842 203.321 914.648 201.75 913.559 200.9C912.471 200.051 910.9 200.245 910.05 201.333L913.992 204.409ZM933.446 168.248C932.7 169.41 933.037 170.957 934.199 171.703C935.361 172.449 936.908 172.112 937.654 170.95L933.446 168.248ZM958.383 135.619C959.035 134.403 958.578 132.887 957.362 132.234C956.145 131.581 954.63 132.038 953.977 133.255L958.383 135.619ZM971.942 96.8425C971.372 98.0998 971.928 99.5816 973.186 100.152C974.443 100.723 975.925 100.166 976.495 98.9087L971.942 96.8425ZM992.314 61.1795C992.813 59.892 992.173 58.444 990.886 57.9453C989.598 57.4466 988.15 58.086 987.651 59.3735L992.314 61.1795ZM1001.4 21.1156C1000.96 22.4256 1001.67 23.8412 1002.98 24.2776C1004.29 24.7139 1005.7 24.0057 1006.14 22.6957L1001.4 21.1156ZM32.1449 431.419C39.1574 419.768 46.1917 408.879 53.2499 398.709L49.1424 395.858C42.0182 406.123 34.9254 417.103 27.8609 428.841L32.1449 431.419ZM76.9344 367.341C85.6252 356.814 94.3544 347.293 103.126 338.699L99.6268 335.127C90.721 343.853 81.8734 353.505 73.0786 364.158L76.9344 367.341ZM132.738 313.225C143.62 305.112 154.575 298.261 165.614 292.531L163.31 288.093C152.024 293.952 140.84 300.948 129.749 309.217L132.738 313.225ZM201.473 277.77C213.979 273.885 226.616 271.196 239.399 269.515L238.747 264.558C225.701 266.273 212.785 269.02 199.989 272.995L201.473 277.77ZM278.262 267.311C291.078 267.458 304.051 268.393 317.194 269.938L317.778 264.972C304.489 263.41 291.339 262.461 278.319 262.311L278.262 267.311ZM355.846 275.985C368.469 278.385 381.245 281.171 394.187 284.196L395.325 279.327C382.337 276.291 369.49 273.49 356.781 271.073L355.846 275.985ZM432.325 293.54C444.862 296.706 457.575 299.963 470.427 303.175L471.64 298.324C458.792 295.113 446.112 291.864 433.549 288.692L432.325 293.54ZM508.687 312.39C521.377 315.295 534.224 318.05 547.233 320.543L548.174 315.632C535.236 313.153 522.448 310.411 509.802 307.516L508.687 312.39ZM586.138 327.036C592.628 327.945 599.157 328.766 605.728 329.485L606.272 324.515C599.754 323.801 593.274 322.987 586.832 322.084L586.138 327.036ZM605.728 329.485C612.654 330.244 619.471 330.838 626.182 331.273L626.505 326.283C619.87 325.853 613.126 325.265 606.272 324.515L605.728 329.485ZM667.2 331.94C681.332 331.451 694.942 330.2 708.051 328.24L707.312 323.295C694.396 325.226 680.975 326.46 667.027 326.943L667.2 331.94ZM748.191 319.645C761.687 315.832 774.582 311.203 786.903 305.831L784.905 301.247C772.791 306.529 760.11 311.082 746.832 314.834L748.191 319.645ZM823.332 286.859C835.103 279.662 846.267 271.728 856.86 263.147L853.713 259.262C843.284 267.71 832.299 275.516 820.724 282.593L823.332 286.859ZM887.106 235.397C896.593 225.597 905.543 215.238 913.992 204.409L910.05 201.333C901.703 212.032 892.869 222.255 883.514 231.919L887.106 235.397ZM937.654 170.95C944.997 159.513 951.895 147.709 958.383 135.619L953.977 133.255C947.547 145.239 940.714 156.93 933.446 168.248L937.654 170.95ZM976.495 98.9087C982.124 86.5052 987.386 73.9024 992.314 61.1795L987.651 59.3735C982.755 72.0158 977.529 84.5314 971.942 96.8425L976.495 98.9087ZM1006.14 22.6957C1008.3 16.2177 1010.38 9.72891 1012.39 3.2395L1007.61 1.7605C1005.61 8.21756 1003.54 14.6726 1001.4 21.1156L1006.14 22.6957Z" fill="white" fill-opacity="0.1"/>
</svg>
