<?xml version="1.0" standalone="no"?>
<!DOCTYPE svg PUBLIC "-//W3C//DTD SVG 20010904//EN"
 "http://www.w3.org/TR/2001/REC-SVG-20010904/DTD/svg10.dtd">
<svg version="1.0" xmlns="http://www.w3.org/2000/svg"
 width="512.000000pt" height="512.000000pt" viewBox="0 0 512.000000 512.000000"
 preserveAspectRatio="xMidYMid meet">
<metadata>
Created by potrace 1.14, written by Peter Selinger 2001-2017
</metadata>
<g transform="translate(0.000000,512.000000) scale(0.100000,-0.100000)"
fill="#000000" stroke="none">
<path d="M2365 5074 c-16 -2 -73 -9 -125 -15 -258 -29 -545 -115 -795 -238
-735 -361 -1225 -1022 -1352 -1821 -26 -165 -26 -654 0 -820 86 -549 326
-1029 707 -1410 381 -381 863 -622 1410 -707 161 -25 539 -25 700 0 547 85
1029 326 1410 707 381 381 621 861 707 1410 26 166 26 655 0 820 -171 1075
-1009 1891 -2112 2056 -95 14 -486 27 -550 18z m323 -991 c58 -43 67 -66 71
-188 l3 -114 50 -11 c79 -16 192 -57 271 -96 122 -62 278 -179 334 -253 l26
-33 -128 -128 -129 -129 -83 79 c-147 139 -327 210 -533 210 -135 0 -233 -24
-360 -87 -80 -40 -110 -62 -190 -143 -81 -80 -103 -110 -143 -190 -63 -127
-87 -225 -87 -360 0 -211 72 -391 219 -543 292 -305 784 -319 1090 -31 43 40
90 91 106 114 l29 41 127 -127 128 -128 -19 -27 c-38 -52 -162 -170 -233 -220
-124 -88 -285 -160 -425 -189 l-50 -11 -3 -114 c-4 -123 -13 -144 -73 -189
-40 -30 -182 -30 -222 0 -60 45 -69 66 -73 189 l-3 114 -42 7 c-69 11 -209 60
-292 102 -322 163 -553 475 -615 832 -17 103 -15 296 5 403 66 347 293 649
610 809 83 42 223 91 294 103 l42 7 0 91 c0 51 5 108 10 128 12 41 55 86 96
99 48 16 162 5 192 -17z"/>
</g>
</svg>
