<svg width="969" height="473" viewBox="0 0 969 473" fill="none" xmlns="http://www.w3.org/2000/svg">
    <path d="M967 473L968.553 444.174L942.813 457.242L967 473ZM446.5 245.5L445.856 243.084L446.5 245.5ZM5.41058 1.83736C5.04462 0.506031 3.66869 -0.276549 2.33736 0.0894178C1.00603 0.455385 0.223451 1.83131 0.589418 3.16264L5.41058 1.83736ZM7.04093 22.3766C7.52288 23.6705 8.96246 24.3286 10.2563 23.8467C11.5502 23.3648 12.2084 21.9252 11.7264 20.6313L7.04093 22.3766ZM27.6074 57.5875C27.0039 56.3457 25.5079 55.8282 24.2661 56.4317C23.0243 57.0352 22.5068 58.5311 23.1103 59.773L27.6074 57.5875ZM42.5434 95.5427C43.2573 96.7245 44.7941 97.1038 45.9759 96.3898C47.1577 95.6758 47.537 94.139 46.823 92.9572L42.5434 95.5427ZM69.2265 126.337C68.4018 125.23 66.8356 125 65.7282 125.825C64.6209 126.65 64.3917 128.216 65.2164 129.323L69.2265 126.337ZM91.2261 160.691C92.1633 161.705 93.745 161.767 94.7589 160.83C95.7727 159.893 95.8348 158.311 94.8975 157.297L91.2261 160.691ZM123.766 185.139C122.718 184.241 121.14 184.363 120.241 185.412C119.343 186.461 119.465 188.039 120.514 188.937L123.766 185.139ZM153.042 213.446C154.196 214.205 155.746 213.885 156.505 212.731C157.263 211.578 156.943 210.027 155.79 209.269L153.042 213.446ZM190.671 229.038C189.427 228.439 187.933 228.962 187.334 230.206C186.736 231.45 187.259 232.944 188.503 233.543L190.671 229.038ZM226.322 248.703C227.635 249.129 229.046 248.41 229.472 247.097C229.899 245.784 229.18 244.374 227.867 243.947L226.322 248.703ZM266.65 253.787C265.292 253.534 263.987 254.429 263.734 255.787C263.482 257.144 264.377 258.449 265.735 258.702L266.65 253.787ZM306.156 263.688C307.534 263.776 308.721 262.729 308.809 261.352C308.896 259.974 307.85 258.786 306.472 258.698L306.156 263.688ZM346.596 259.018C345.216 259.081 344.149 260.249 344.211 261.629C344.273 263.008 345.442 264.076 346.821 264.013L346.596 259.018ZM387.37 260.194C388.737 260.001 389.688 258.736 389.495 257.369C389.302 256.002 388.037 255.05 386.67 255.244L387.37 260.194ZM426.082 247.962C424.736 248.267 423.892 249.606 424.197 250.953C424.502 252.299 425.841 253.143 427.188 252.838L426.082 247.962ZM466.621 242.924C467.962 242.595 468.781 241.24 468.452 239.9C468.122 238.559 466.768 237.739 465.427 238.069L466.621 242.924ZM504.333 229.355C502.979 229.627 502.103 230.945 502.375 232.299C502.647 233.652 503.965 234.529 505.318 234.257L504.333 229.355ZM544.477 227.386C545.843 227.183 546.785 225.912 546.582 224.546C546.379 223.18 545.108 222.238 543.742 222.441L544.477 227.386ZM583.526 217.723C582.151 217.843 581.132 219.055 581.252 220.43C581.371 221.806 582.583 222.824 583.959 222.704L583.526 217.723ZM623.536 220.675C624.917 220.656 626.021 219.522 626.002 218.141C625.984 216.761 624.849 215.657 623.469 215.675L623.536 220.675ZM663.463 216.849C662.086 216.745 660.887 217.778 660.783 219.155C660.68 220.532 661.712 221.731 663.089 221.835L663.463 216.849ZM702.403 226.834C703.761 227.083 705.064 226.184 705.312 224.825C705.561 223.467 704.662 222.165 703.304 221.916L702.403 226.834ZM742.276 231.533C740.959 231.118 739.555 231.848 739.139 233.165C738.724 234.482 739.455 235.886 740.772 236.301L742.276 231.533ZM777.499 250.722C778.745 251.316 780.237 250.787 780.831 249.541C781.425 248.294 780.896 246.802 779.649 246.208L777.499 250.722ZM814.617 266.101C813.469 265.333 811.917 265.641 811.149 266.788C810.381 267.936 810.688 269.488 811.836 270.256L814.617 266.101ZM843.024 294.471C844.054 295.39 845.634 295.3 846.553 294.269C847.473 293.239 847.382 291.659 846.352 290.74L843.024 294.471ZM874.585 319.279C873.673 318.242 872.094 318.14 871.057 319.052C870.02 319.963 869.918 321.543 870.83 322.58L874.585 319.279ZM895.432 353.624C896.238 354.745 897.8 355.001 898.921 354.195C900.042 353.389 900.298 351.827 899.492 350.706L895.432 353.624ZM921.597 384.107C920.875 382.93 919.336 382.561 918.159 383.282C916.982 384.004 916.612 385.543 917.334 386.72L921.597 384.107ZM937.196 421.146C937.858 422.357 939.377 422.802 940.589 422.14C941.8 421.477 942.245 419.958 941.583 418.747L937.196 421.146ZM960.202 454.086C959.573 452.857 958.066 452.371 956.837 453C955.608 453.629 955.122 455.135 955.751 456.364L960.202 454.086ZM3 2.5C0.589418 3.16264 0.589474 3.16285 0.589538 3.16308C0.58957 3.16319 0.589641 3.16345 0.589704 3.16368C0.589829 3.16414 0.589984 3.1647 0.590169 3.16537C0.59054 3.16672 0.59103 3.16849 0.591641 3.17071C0.592862 3.17513 0.594565 3.18128 0.59675 3.18916C0.601121 3.20491 0.607424 3.22756 0.615674 3.25702C0.632175 3.31594 0.656466 3.40214 0.688674 3.51504C0.753089 3.74083 0.84917 4.07343 0.977918 4.5082C1.23541 5.37774 1.62359 6.6561 2.15048 8.30634C3.20422 11.6067 4.81298 16.3953 7.04093 22.3766L11.7264 20.6313C9.52825 14.7299 7.94517 10.0165 6.9136 6.78557C6.39783 5.17017 6.02 3.92554 5.77213 3.08852C5.6482 2.67001 5.55677 2.35342 5.49684 2.14336C5.46688 2.03832 5.44479 1.95992 5.43046 1.90873C5.42329 1.88314 5.41806 1.86434 5.41475 1.85242C5.4131 1.84646 5.41192 1.84222 5.41123 1.83971C5.41088 1.83845 5.41066 1.83763 5.41055 1.83723C5.41049 1.83704 5.41047 1.83695 5.41048 1.83697C5.41048 1.83698 5.41051 1.83708 5.41051 1.83708C5.41054 1.83721 5.41058 1.83736 3 2.5ZM23.1103 59.773C28.4772 70.8168 34.9162 82.9176 42.5434 95.5427L46.823 92.9572C39.2825 80.4755 32.9151 68.5097 27.6074 57.5875L23.1103 59.773ZM65.2164 129.323C73.0399 139.829 81.6899 150.376 91.2261 160.691L94.8975 157.297C85.4912 147.122 76.9534 136.713 69.2265 126.337L65.2164 129.323ZM120.514 188.937C130.587 197.563 141.416 205.799 153.042 213.446L155.79 209.269C144.35 201.744 133.689 193.637 123.766 185.139L120.514 188.937ZM188.503 233.543C200.417 239.278 213.013 244.38 226.322 248.703L227.867 243.947C214.776 239.695 202.388 234.678 190.671 229.038L188.503 233.543ZM265.735 258.702C278.632 261.104 292.099 262.798 306.156 263.688L306.472 258.698C292.614 257.821 279.347 256.151 266.65 253.787L265.735 258.702ZM346.821 264.013C359.883 263.424 373.395 262.171 387.37 260.194L386.67 255.244C372.847 257.199 359.494 258.436 346.596 259.018L346.821 264.013ZM427.188 252.838C433.746 251.352 440.398 249.713 447.144 247.916L445.856 243.084C439.17 244.865 432.579 246.489 426.082 247.962L427.188 252.838ZM447.144 247.916C453.728 246.162 460.22 244.499 466.621 242.924L465.427 238.069C458.994 239.651 452.471 241.322 445.856 243.084L447.144 247.916ZM505.318 234.257C518.803 231.547 531.85 229.263 544.477 227.386L543.742 222.441C531.027 224.33 517.897 226.629 504.333 229.355L505.318 234.257ZM583.959 222.704C597.688 221.511 610.87 220.846 623.536 220.675L623.469 215.675C610.674 215.848 597.37 216.52 583.526 217.723L583.959 222.704ZM663.089 221.835C676.86 222.868 689.948 224.552 702.403 226.834L703.304 221.916C690.667 219.601 677.403 217.895 663.463 216.849L663.089 221.835ZM740.772 236.301C753.768 240.401 765.984 245.236 777.499 250.722L779.649 246.208C767.924 240.622 755.492 235.702 742.276 231.533L740.772 236.301ZM811.836 270.256C822.93 277.682 833.291 285.789 843.024 294.471L846.352 290.74C836.457 281.913 825.914 273.662 814.617 266.101L811.836 270.256ZM870.83 322.58C879.535 332.482 887.699 342.867 895.432 353.624L899.492 350.706C891.676 339.833 883.411 329.318 874.585 319.279L870.83 322.58ZM917.334 386.72C924.238 397.981 930.823 409.492 937.196 421.146L941.583 418.747C935.18 407.038 928.553 395.453 921.597 384.107L917.334 386.72Z" fill="white" fill-opacity="0.1"/>
</svg>
